<?xml version="1.0" encoding="UTF-8"?>
<svg xmlns="http://www.w3.org/2000/svg" xmlns:xlink="http://www.w3.org/1999/xlink" width="144pt" height="34pt" viewBox="10 -15 120 50" version="1.1">
<g id="surface1">
<path style=" stroke:none;fill-rule:nonzero;fill:rgb(255,255,255);fill-opacity:1;" d="M 47.414062 5.878906 C 46.164062 5.929688 45.183594 6.984375 45.21875 8.238281 C 45.253906 9.496094 46.289062 10.492188 47.542969 10.476562 C 48.792969 10.457031 49.800781 9.433594 49.804688 8.175781 C 49.804688 7.550781 49.550781 6.949219 49.101562 6.511719 C 48.648438 6.078125 48.039062 5.847656 47.414062 5.878906 Z M 49.585938 11.898438 L 45.199219 11.898438 L 45.199219 21.054688 C 45.199219 22.660156 44.273438 23.273438 42.949219 23.886719 L 44.46875 27.078125 C 47.175781 26.265625 49.585938 24.699219 49.585938 20.796875 Z M 55.941406 11.484375 C 52.488281 11.484375 50.335938 13.683594 50.335938 17.191406 C 50.335938 20.953125 52.546875 22.953125 55.941406 22.953125 C 59.398438 22.953125 61.550781 20.738281 61.550781 17.25 C 61.550781 13.464844 59.339844 11.484375 55.941406 11.484375 Z M 55.941406 14.59375 C 56.753906 14.59375 57.089844 15.289062 57.089844 17.25 C 57.089844 19.074219 56.753906 19.824219 55.941406 19.824219 C 55.132812 19.824219 54.796875 19.152344 54.796875 17.191406 C 54.796875 15.347656 55.113281 14.59375 55.941406 14.59375 Z M 69.40625 11.484375 C 68.355469 11.476562 67.355469 11.941406 66.683594 12.753906 L 66.683594 7.324219 L 62.296875 7.757812 L 62.296875 22.519531 L 66.207031 22.519531 L 66.328125 21.648438 C 66.96875 22.503906 67.984375 22.992188 69.050781 22.957031 C 71.738281 22.957031 73.296875 20.460938 73.296875 17.25 C 73.296875 13.683594 72.054688 11.484375 69.410156 11.484375 Z M 67.691406 19.84375 C 67.253906 19.847656 66.855469 19.601562 66.664062 19.210938 L 66.683594 19.132812 L 66.683594 15.425781 C 66.882812 14.960938 67.324219 14.640625 67.828125 14.59375 C 68.363281 14.59375 68.835938 14.871094 68.835938 17.25 C 68.835938 19.308594 68.363281 19.84375 67.691406 19.84375 Z M 112.449219 11.898438 L 108.246094 11.898438 L 107.59375 19.132812 L 106.664062 11.898438 L 102.65625 11.898438 L 101.433594 19.132812 L 101.078125 11.898438 L 96.636719 11.898438 L 98.6875 22.519531 L 103.605469 22.519531 L 104.511719 15.804688 L 105.519531 22.519531 L 110.453125 22.519531 Z M 118.015625 11.484375 C 114.5625 11.484375 112.410156 13.683594 112.410156 17.191406 C 112.410156 20.953125 114.621094 22.953125 118.015625 22.953125 C 121.472656 22.953125 123.625 20.738281 123.625 17.25 C 123.625 13.464844 121.414062 11.484375 118.015625 11.484375 Z M 118.015625 14.59375 C 118.828125 14.59375 119.164062 15.289062 119.164062 17.25 C 119.164062 19.074219 118.828125 19.824219 118.015625 19.824219 C 117.207031 19.824219 116.871094 19.152344 116.871094 17.191406 C 116.871094 15.347656 117.1875 14.59375 118.015625 14.59375 Z M 131.207031 11.542969 C 130.039062 11.542969 128.957031 12.515625 128.558594 13.882812 L 128.203125 11.902344 L 124.375 11.902344 L 124.375 22.519531 L 128.757812 22.519531 L 128.757812 17.964844 C 129.015625 16.753906 129.371094 15.804688 130.613281 15.804688 C 130.949219 15.816406 131.28125 15.875 131.601562 15.984375 L 132.273438 11.742188 C 131.929688 11.617188 131.570312 11.550781 131.207031 11.542969 Z M 136.949219 7.324219 L 132.566406 7.761719 L 132.566406 22.519531 L 136.949219 22.519531 Z M 143.902344 11.902344 L 139.617188 11.902344 L 137.03125 16.714844 L 139.179688 22.519531 L 144 22.519531 L 141.351562 16.554688 Z M 83.878906 8.453125 C 81.019531 8.453125 79.65625 10.039062 79.65625 11.742188 C 79.65625 13.011719 80.1875 13.804688 81.550781 15.128906 C 79.773438 16.300781 78.882812 17.367188 78.882812 19.011719 C 78.882812 21.332031 80.835938 22.855469 83.761719 22.855469 C 85.332031 22.894531 86.863281 22.367188 88.085938 21.371094 L 89.625 22.855469 L 92.289062 21.605469 L 89.898438 19.488281 C 90.679688 18.355469 91.292969 17.113281 91.71875 15.800781 L 89.109375 15.03125 C 88.898438 16.011719 88.578125 16.96875 88.164062 17.882812 L 85.5 15.367188 C 87.019531 14.355469 88.105469 13.285156 88.105469 11.621094 C 88.105469 9.820312 86.546875 8.453125 83.878906 8.453125 Z M 83.917969 10.472656 C 84.25 10.449219 84.574219 10.570312 84.804688 10.808594 C 85.039062 11.046875 85.152344 11.371094 85.125 11.703125 C 85.125 12.535156 84.691406 13.128906 83.78125 13.722656 C 82.953125 12.890625 82.65625 12.4375 82.65625 11.742188 C 82.632812 11.398438 82.757812 11.0625 83 10.816406 C 83.242188 10.574219 83.578125 10.449219 83.921875 10.472656 Z M 83.328125 16.816406 L 86.527344 19.886719 C 85.890625 20.382812 85.101562 20.652344 84.292969 20.636719 C 82.992188 20.636719 82.144531 19.925781 82.144531 18.835938 C 82.164062 18.003906 82.613281 17.238281 83.328125 16.8125 Z M 83.328125 16.816406 "/>
<path style=" stroke:none;fill-rule:evenodd;fill:rgb(255,255,255);fill-opacity:1;" d="M 16.917969 0 C 26.261719 0 33.835938 7.601562 33.835938 16.976562 C 33.835938 26.351562 26.261719 33.953125 16.917969 33.953125 C 7.574219 33.953125 0 26.351562 0 16.976562 C 0 7.601562 7.574219 0 16.917969 0 Z M 18.574219 10.816406 L 17.472656 10.816406 C 16.253906 10.820312 15.265625 11.8125 15.261719 13.035156 L 15.261719 27.796875 L 15.445312 27.796875 C 17.171875 27.789062 18.566406 26.386719 18.574219 24.65625 Z M 8.960938 8.765625 L 10.066406 8.765625 C 11.285156 8.769531 12.273438 9.757812 12.273438 10.984375 L 12.273438 24.082031 L 12.089844 24.082031 C 10.367188 24.078125 8.96875 22.675781 8.960938 20.945312 Z M 24.90625 8.765625 L 23.804688 8.765625 C 22.585938 8.769531 21.597656 9.757812 21.59375 10.984375 L 21.59375 24.082031 L 21.777344 24.082031 C 23.503906 24.078125 24.898438 22.675781 24.90625 20.945312 Z M 24.90625 8.765625 "/>
</g>
</svg>
